# File created by Blade
# Date/Time:  Tue Jan 27 17:16:36 2015
#---------------------------------------------------------
:version 1.10
:name HOM
:units
  mass 1.0
  length 1.000000
  angle deg
:documentation
     Acclaim Skeleton File
:root
   axis xyz
   order TX TY TZ RX RY RZ
   position 0.000000 0.000000 0.000000
   orientation 0 0 0
:bonedata
   begin
      id 1
      name Spine_dum
      direction 0.000000 1.000000 0.000000
      length 7.539951
      axis 0.0 0.0 0.0 xyz
   end
   begin
      id 2
      name LeftUpLeg_dum
      direction 1.000000 0.000000 0.000000
      length 3.345476
      axis 0.0 0.0 0.0 xyz
   end
   begin
      id 3
      name RightUpLeg_dum
      direction -1.000000 0.000000 0.000000
      length 3.345476
      axis 0.0 0.0 0.0 xyz
   end
   begin
      id 4
      name Spine
      direction 0.000000 1.000000 0.000000
      length 0.000000
      axis 0.0 0.0 0.0 xyz
      dof rx ry rz
   end
   begin
      id 5
      name Spine_dum1
      direction 0.000000 1.000000 0.000000
      length 15.093809
      axis 0.0 0.0 0.0 xyz
   end
   begin
      id 6
      name Spine_dum2
      direction 0.000000 1.000000 0.000000
      length 9.738928
      axis 0.0 0.0 0.0 xyz
   end
   begin
      id 7
      name Spine_dum3
      direction 0.000000 1.000000 0.000000
      length 9.738928
      axis 0.0 0.0 0.0 xyz
   end
   begin
      id 8
      name Head
      direction 0.000000 1.000000 0.000000
      length 4.527550
      axis 0.0 0.0 0.0 xyz
      dof rx ry rz
   end
   begin
      id 9
      name LeftShoulder
      direction 1.000000 0.000000 0.000000
      length 7.084015
      axis 0.0 0.0 -90.0 xyz
      dof rx ry rz
   end
   begin
      id 10
      name LeftArm
      direction 1.000000 0.000000 0.000000
      length 10.259319
      axis 0.0 0.0 -90.0 xyz
      dof rx ry rz
   end
   begin
      id 11
      name LeftForeArm
      direction 1.000000 0.000000 0.000000
      length 9.896984
      axis 0.0 0.0 -90.0 xyz
      dof ry rz rx
   end
   begin
      id 12
      name LeftHand
      direction 0.000000 0.000000 0.000000
      length 0.000000
      axis 0.0 0.0 -90.0 xyz
      dof rx ry rz
   end
   begin
      id 13
      name LeftHand_dum1
      direction 0.000000 0.000000 0.000000
      length 0.000000
      axis 0.0 0.0 -90.0 xyz
   end
   begin
      id 14
      name LeftHand_dum2
      direction 1.000000 0.000000 0.000000
      length 3.937000
      axis 0.0 0.0 -90.0 xyz
   end
   begin
      id 15
      name LeftHandThumb1
      direction 0.000000 0.000000 1.000000
      length 3.937000
      axis 0.0 0.0 -90.0 xyz
      dof rx rz ry
   end
   begin
      id 16
      name RightShoulder
      direction -1.000000 0.000000 0.000000
      length 7.084015
      axis 0.0 0.0 90.0 xyz
      dof rx ry rz
   end
   begin
      id 17
      name RightArm
      direction -1.000000 0.000000 0.000000
      length 10.259319
      axis 0.0 0.0 90.0 xyz
      dof rx ry rz
   end
   begin
      id 18
      name RightForeArm
      direction -1.000000 0.000000 0.000000
      length 9.896984
      axis 0.0 0.0 90.0 xyz
      dof ry rz rx
   end
   begin
      id 19
      name RightHand
      direction 0.000000 0.000000 0.000000
      length 0.000000
      axis 0.0 0.0 90.0 xyz
      dof rx ry rz
   end
   begin
      id 20
      name RightHand_dum1
      direction 0.000000 0.000000 0.000000
      length 0.000000
      axis 0.0 0.0 90.0 xyz
   end
   begin
      id 21
      name RightHand_dum2
      direction -1.000000 0.000000 0.000000
      length 3.937000
      axis 0.0 0.0 90.0 xyz
   end
   begin
      id 22
      name RightHandThumb1
      direction 0.000000 0.000000 1.000000
      length 3.937000
      axis 0.0 0.0 90.0 xyz
      dof rx rz ry
   end
   begin
      id 23
      name LeftUpLeg
      direction 0.000000 -1.000000 0.000000
      length 19.114733
      axis 0.0 0.0 0.0 xyz
      dof rx ry rz
   end
   begin
      id 24
      name LeftLeg
      direction 0.000000 -1.000000 0.000000
      length 16.045604
      axis 0.0 0.0 0.0 xyz
      dof rx ry rz
   end
   begin
      id 25
      name LeftFoot
      direction 0.000000 -0.258819 0.965926
      length 5.543155
      axis 15.0 0.0 0.0 xyz
      dof rx ry rz
   end
   begin
      id 26
      name LeftToeBase
      direction 0.000000 0.000000 1.000000
      length 2.952750
      axis 0.0 0.0 0.0 xyz
      dof rx ry rz
   end
   begin
      id 27
      name RightUpLeg
      direction 0.000000 -1.000000 0.000000
      length 19.114733
      axis 0.0 0.0 0.0 xyz
      dof rx ry rz
   end
   begin
      id 28
      name RightLeg
      direction 0.000000 -1.000000 0.000000
      length 16.045604
      axis 0.0 0.0 0.0 xyz
      dof rx ry rz
   end
   begin
      id 29
      name RightFoot
      direction 0.000000 -0.258819 0.965926
      length 5.543155
      axis 15.0 0.0 0.0 xyz
      dof rx ry rz
   end
   begin
      id 30
      name RightToeBase
      direction 0.000000 0.000000 1.000000
      length 2.952750
      axis 0.0 0.0 0.0 xyz
      dof rx ry rz
   end
:hierarchy
   begin
      root Spine_dum LeftUpLeg_dum RightUpLeg_dum
      Spine_dum Spine
      LeftUpLeg_dum LeftUpLeg
      RightUpLeg_dum RightUpLeg
      Spine Spine_dum1 Spine_dum2 Spine_dum3
      Spine_dum1 Head
      Spine_dum2 LeftShoulder
      Spine_dum3 RightShoulder
      LeftShoulder LeftArm
      LeftArm LeftForeArm
      LeftForeArm LeftHand
      LeftHand LeftHand_dum1 LeftHand_dum2
      LeftHand_dum1 LeftHandThumb1
      RightShoulder RightArm
      RightArm RightForeArm
      RightForeArm RightHand
      RightHand RightHand_dum1 RightHand_dum2
      RightHand_dum1 RightHandThumb1
      LeftUpLeg LeftLeg
      LeftLeg LeftFoot
      LeftFoot LeftToeBase
      RightUpLeg RightLeg
      RightLeg RightFoot
      RightFoot RightToeBase
   end

# File created by Blade
# Date/Time:  Tue Jan 27 17:16:27 2015
# Frame Rate: 120.000 fps
#------------------------------------------------------
:FULLY-SPECIFIED
:DEGREES
122
root -2.976116 36.731888 0.731897 -4.042133 -5.355156 7.476606
Spine 9.865931 12.024156 -6.921751
Head -4.923841 -3.860708 4.420204
LeftShoulder -4.123981 -12.210638 11.912831
LeftArm -8.424382 -22.289314 -36.383255
LeftForeArm 1.345634 -0.000000 71.498018
LeftHand -15.208068 -0.000000 45.535747
LeftHandThumb1 -26.253704 0.000000 33.147579
RightShoulder -2.167014 -18.877531 2.857774
RightArm 29.050107 -21.631588 48.462068
RightForeArm -163.512708 0.000000 39.858820
RightHand 4.846246 -0.000000 -4.670803
RightHandThumb1 -24.326973 -0.000000 -32.862282
LeftUpLeg -74.900117 18.694012 -1.334647
LeftLeg 107.562874 -0.000000 -0.000000
LeftFoot -8.276907 -1.623539 -23.406439
LeftToeBase 12.568391 -0.000000 -0.000000
RightUpLeg -6.848636 -6.376429 -1.633757
RightLeg 26.119068 -0.000000 -0.000000
RightFoot -20.343210 -11.805314 2.039231
RightToeBase 4.973291 -0.000000 -0.000000
123
root -2.977540 36.729057 0.709879 -4.066537 -5.449466 7.458076
Spine 10.015673 12.214913 -6.849293
Head -5.104303 -3.976748 4.439719
LeftShoulder -3.964241 -12.261627 11.887593
LeftArm -8.389211 -22.294796 -36.400650
LeftForeArm 1.316254 -0.000000 71.520300
LeftHand -15.186253 -0.000000 45.698893
LeftHandThumb1 -26.253704 0.000000 33.147579
RightShoulder -1.841101 -18.770279 2.850405
RightArm 29.631981 -22.235389 48.055666
RightForeArm -162.371044 -0.000000 39.855414
RightHand 4.976718 -0.000000 -5.140639
RightHandThumb1 -24.326973 -0.000000 -32.862282
LeftUpLeg -74.982625 18.709794 -1.423006
LeftLeg 107.633309 -0.000000 -0.000000
LeftFoot -8.250514 -1.660082 -23.508417
LeftToeBase 12.413757 -0.000000 -0.000000
RightUpLeg -6.894319 -6.340746 -1.608213
RightLeg 26.170167 -0.000000 -0.000000
RightFoot -20.312055 -11.721266 2.052996
RightToeBase 4.933809 -0.000000 -0.000000
124
root -2.981480 36.725415 0.685517 -4.057202 -5.601879 7.461282
Spine 10.118001 12.464337 -6.828199
Head -5.294671 -4.065893 4.487627
LeftShoulder -3.825567 -12.287406 11.903512
LeftArm -8.315889 -22.293597 -36.439530
LeftForeArm 1.351716 -0.000000 71.504500
LeftHand -15.205289 0.000000 45.854858
LeftHandThumb1 -26.253704 0.000000 33.147579
RightShoulder -1.466533 -18.590910 2.851510
RightArm 30.188001 -22.957151 47.629747
RightForeArm -161.482047 -0.000000 39.867896
RightHand 5.111822 -0.000000 -5.441645
RightHandThumb1 -24.326973 -0.000000 -32.862282
LeftUpLeg -75.105448 18.793000 -1.531389
LeftLeg 107.719938 -0.000000 -0.000000
LeftFoot -8.171887 -1.682324 -23.576111
LeftToeBase 12.372033 -0.000000 -0.000000
RightUpLeg -6.995856 -6.236864 -1.588211
RightLeg 26.242451 -0.000000 -0.000000
RightFoot -20.288242 -11.687711 2.015273
RightToeBase 4.940861 -0.000000 -0.000000
125
root -2.979645 36.724005 0.662420 -4.089536 -5.680575 7.453365
Spine 10.301128 12.632393 -6.735910
Head -5.511442 -4.174296 4.443047
LeftShoulder -3.705341 -12.315237 11.866761
LeftArm -8.214208 -22.271944 -36.484185
LeftForeArm 1.387307 0.000000 71.459903
LeftHand -15.237724 -0.000000 46.130634
LeftHandThumb1 -26.253704 0.000000 33.147579
RightShoulder -1.075642 -18.378051 2.806926
RightArm 30.784345 -23.684037 47.200727
RightForeArm -160.485264 -0.000000 39.829952
RightHand 5.374796 -0.000000 -6.064349
RightHandThumb1 -24.326973 -0.000000 -32.862282
LeftUpLeg -75.185376 18.765234 -1.606465
LeftLeg 107.800074 -0.000000 -0.000000
LeftFoot -8.088810 -1.743431 -23.652801
LeftToeBase 12.345617 -0.000000 -0.000000
RightUpLeg -7.033203 -6.277931 -1.582855
RightLeg 26.290603 -0.000000 -0.000000
RightFoot -20.261654 -11.587863 1.979498
RightToeBase 4.965981 -0.000000 -0.000000
126
root -2.976948 36.722467 0.644266 -4.138837 -5.700079 7.414182
Spine 10.506356 12.759768 -6.586745
Head -5.707597 -4.291466 4.387580
LeftShoulder -3.581969 -12.304741 11.823232
LeftArm -8.098063 -22.297918 -36.568813
LeftForeArm 1.417825 -0.000000 71.437429
LeftHand -15.241497 -0.000000 46.220165
LeftHandThumb1 -26.253704 0.000000 33.147579
RightShoulder -0.703860 -18.198611 2.751576
RightArm 31.478816 -24.435289 46.717143
RightForeArm -159.577588 -0.000000 39.740674
RightHand 5.235232 0.000000 -6.244796
RightHandThumb1 -24.326973 -0.000000 -32.862282
LeftUpLeg -75.246275 18.663253 -1.658912
LeftLeg 107.914669 -0.000000 -0.000000
LeftFoot -8.047237 -1.757014 -23.758133
LeftToeBase 12.284335 -0.000000 -0.000000
RightUpLeg -7.017377 -6.411700 -1.559453
RightLeg 26.300862 -0.000000 -0.000000
RightFoot -20.227320 -11.458710 1.909165
RightToeBase 4.979236 -0.000000 -0.000000
127
root -2.986517 36.719567 0.618598 -4.168235 -5.861447 7.359222
Spine 10.685404 13.056555 -6.470231
Head -5.900938 -4.356600 4.448430
LeftShoulder -3.427076 -12.363448 11.858528
LeftArm -8.056562 -22.319500 -36.654240
LeftForeArm 1.341424 -0.000000 71.452556
LeftHand -15.239128 -0.000000 46.243405
LeftHandThumb1 -26.253704 0.000000 33.147579
RightShoulder -0.319166 -18.019845 2.758751
RightArm 32.221041 -25.182176 46.167045
RightForeArm -158.542704 -0.000000 39.690288
RightHand 5.408374 -0.000000 -6.920711
RightHandThumb1 -24.326973 -0.000000 -32.862282
LeftUpLeg -75.331124 18.719464 -1.656984
LeftLeg 108.036876 -0.000000 -0.000000
LeftFoot -7.991145 -1.800040 -23.667637
LeftToeBase 12.369606 -0.000000 -0.000000
RightUpLeg -7.058109 -6.297787 -1.475186
RightLeg 26.334170 -0.000000 -0.000000
RightFoot -20.170372 -11.432807 1.892614
RightToeBase 5.018213 -0.000000 -0.000000
128
root -2.989889 36.717700 0.593339 -4.184635 -5.990276 7.333920
Spine 10.866662 13.324316 -6.361797
Head -6.145561 -4.467694 4.450764
LeftShoulder -3.297808 -12.411233 11.862224
LeftArm -7.957639 -22.301489 -36.740292
LeftForeArm 1.345004 0.000000 71.433132
LeftHand -15.251033 -0.000000 46.414881
LeftHandThumb1 -26.253704 0.000000 33.147579
RightShoulder 0.060290 -17.762704 2.721323
RightArm 32.947365 -25.990131 45.667770
RightForeArm -157.779555 -0.000000 39.629002
RightHand 5.311753 -0.000000 -7.016884
RightHandThumb1 -24.326973 -0.000000 -32.862282
LeftUpLeg -75.437727 18.722854 -1.710176
LeftLeg 108.168553 -0.000000 -0.000000
LeftFoot -7.950650 -1.822334 -23.715320
LeftToeBase 12.341653 -0.000000 -0.000000
RightUpLeg -7.111366 -6.253735 -1.434793
RightLeg 26.368182 -0.000000 -0.000000
RightFoot -20.129902 -11.357879 1.861215
RightToeBase 5.029686 -0.000000 -0.000000
